<?xml version="1.0" encoding="utf-8"?>
<!-- Generator: Adobe Illustrator 16.0.1, SVG Export Plug-In . SVG Version: 6.00 Build 0)  -->
<!DOCTYPE svg PUBLIC "-//W3C//DTD SVG 1.1//EN" "http://www.w3.org/Graphics/SVG/1.1/DTD/svg11.dtd">
<svg version="1.1" id="Layer_1" xmlns="http://www.w3.org/2000/svg" xmlns:xlink="http://www.w3.org/1999/xlink" x="0px" y="0px"
	 width="640px" height="160px" viewBox="710.5 1402.5 640 160" enable-background="new 710.5 1402.5 640 160" xml:space="preserve">
<g>
	<g>
		<path id="SVGID_1_" fill="#333333" d="M766.5,1458.501l56-56.001h-112L766.5,1458.501z"/>
	</g>
	<g>
		<g>
			<g>
				<defs>
					<polygon id="SVGID_2_" points="766.5,1458.501 822.5,1402.5 710.5,1402.5 					"/>
				</defs>
				<clipPath id="SVGID_4_">
					<use xlink:href="#SVGID_2_"  overflow="visible"/>
				</clipPath>
				<path clip-path="url(#SVGID_4_)" fill="#FFFFFF" d="M796.787,1413.7c-2.753,0-60.573,0-60.573,0s-2.754,0-2.754,2.72
					c0,2.723,0,40.815,0,40.815s0,2.721,2.753,2.721s60.573,0,60.573,0s2.754,0,2.754-2.721c0-2.722,0-40.815,0-40.815
					S799.541,1413.7,796.787,1413.7z M751.356,1421.863c3.802,0,6.883,3.045,6.883,6.802c0,3.758-3.081,6.803-6.883,6.803
					c-3.803,0-6.883-3.045-6.883-6.803C744.473,1424.908,747.554,1421.863,751.356,1421.863z M760.944,1451.793h-19.175
					c0,0-2.801-13.604,9.588-13.604C763.747,1438.188,760.944,1451.793,760.944,1451.793z M789.904,1451.793h-19.272
					c-0.757,0-1.376-0.61-1.376-1.36c0-0.749,0.621-1.36,1.376-1.36h19.272c0.758,0,1.376,0.611,1.376,1.36
					C791.28,1451.183,790.662,1451.793,789.904,1451.793z M789.904,1446.351h-19.272c-0.757,0-1.376-0.609-1.376-1.36
					c0-0.748,0.621-1.36,1.376-1.36h19.272c0.758,0,1.376,0.611,1.376,1.36S790.662,1446.351,789.904,1446.351z M789.904,1440.909
					h-19.272c-0.757,0-1.376-0.61-1.376-1.36c0-0.748,0.621-1.36,1.376-1.36h19.272c0.758,0,1.376,0.611,1.376,1.36
					C791.281,1440.299,790.662,1440.909,789.904,1440.909z M789.904,1435.467h-19.272c-0.757,0-1.376-0.61-1.376-1.36
					c0-0.748,0.621-1.36,1.376-1.36h19.272c0.758,0,1.376,0.611,1.376,1.36C791.281,1434.856,790.662,1435.467,789.904,1435.467z
					 M789.904,1430.026h-19.272c-0.757,0-1.376-0.611-1.376-1.361c0-0.748,0.621-1.36,1.376-1.36h19.272
					c0.758,0,1.376,0.611,1.376,1.36C791.281,1429.415,790.662,1430.026,789.904,1430.026z M789.904,1424.584h-19.272
					c-0.757,0-1.376-0.611-1.376-1.36c0-0.748,0.621-1.36,1.376-1.36h19.272c0.758,0,1.376,0.611,1.376,1.36
					S790.662,1424.584,789.904,1424.584z"/>
			</g>
		</g>
	</g>
</g>
<g>
	<g>
		<path id="SVGID_3_" fill="#333333" d="M982.5,1402.5l40,40l40-40H982.5z"/>
	</g>
	<g>
		<g>
			<g>
				<defs>
					<polygon id="SVGID_6_" points="982.5,1402.5 1022.5,1442.5 1062.5,1402.5 					"/>
				</defs>
				<clipPath id="SVGID_8_">
					<use xlink:href="#SVGID_6_"  overflow="visible"/>
				</clipPath>
				<g clip-path="url(#SVGID_8_)">
					<circle fill="#FFFFFF" cx="1022.5" cy="1441.548" r="5.761"/>
					<path fill="#FFFFFF" d="M1042.186,1430.008l-5.77,5.771c-7.687-7.687-20.146-7.687-27.832,0l0,0l-5.77-5.771
						C1013.688,1419.135,1031.313,1419.135,1042.186,1430.008z"/>
					<path fill="#FFFFFF" d="M1046.259,1425.937c-13.122-13.123-34.396-13.123-47.519,0l-5.938-5.94
						c16.401-16.402,42.995-16.402,59.396,0L1046.259,1425.937z"/>
				</g>
			</g>
		</g>
	</g>
</g>
<g>
	<g>
		<path id="SVGID_5_" fill="#333333" d="M902.5,1402.5l40,40l40-40H902.5z"/>
	</g>
	<g>
		<g>
			<g>
				<defs>
					<polygon id="SVGID_10_" points="902.5,1402.5 942.5,1442.5 982.5,1402.5 					"/>
				</defs>
				<clipPath id="SVGID_11_">
					<use xlink:href="#SVGID_10_"  overflow="visible"/>
				</clipPath>
				<path clip-path="url(#SVGID_11_)" fill="#FFFFFF" d="M959,1409.815c-2.172,0.963-4.504,1.612-6.953,1.905
					c2.5-1.498,4.418-3.87,5.322-6.696c-2.338,1.389-4.93,2.395-7.686,2.938c-2.207-2.353-5.354-3.823-8.836-3.823
					c-6.688,0-12.105,5.419-12.105,12.104c0,0.948,0.107,1.873,0.314,2.76c-10.062-0.506-18.98-5.324-24.95-12.647
					c-1.043,1.788-1.641,3.867-1.641,6.086c0,4.199,2.139,7.904,5.388,10.074c-1.984-0.062-3.854-0.605-5.482-1.515
					c-0.002,0.052-0.002,0.103-0.002,0.151c0,5.865,4.174,10.759,9.711,11.869c-1.016,0.277-2.086,0.426-3.188,0.426
					c-0.779,0-1.537-0.075-2.276-0.218c1.541,4.811,6.012,8.311,11.309,8.406c-4.143,3.247-9.359,5.183-15.032,5.183
					c-0.978,0-1.94-0.059-2.889-0.17c5.356,3.438,11.722,5.438,18.558,5.438c22.264,0,34.438-18.445,34.438-34.44
					c0-0.522-0.013-1.047-0.035-1.565C955.324,1414.374,957.377,1412.243,959,1409.815z"/>
			</g>
		</g>
	</g>
</g>
<path fill="#FFFFFF" d="M1164.346,1408.395c-0.73,0.317-1.5,0.538-2.316,0.635c0.836-0.5,1.471-1.299,1.77-2.241
	c-0.779,0.462-1.645,0.799-2.568,0.981c-0.73-0.779-1.778-1.27-2.941-1.27c-2.231,0-4.039,1.808-4.039,4.038
	c0,0.317,0.029,0.625,0.096,0.924c-3.355-0.174-6.326-1.779-8.326-4.231c-0.346,0.606-0.539,1.299-0.539,2.039
	c0,1.394,0.712,2.635,1.789,3.355c-0.654-0.01-1.279-0.202-1.827-0.5c0,0.02,0,0.038,0,0.058c0,1.952,1.394,3.587,3.24,3.962
	c-0.337,0.086-0.692,0.135-1.058,0.135c-0.26,0-0.52-0.02-0.76-0.067c0.51,1.605,2,2.769,3.77,2.808
	c-1.385,1.076-3.125,1.73-5.02,1.73c-0.326,0-0.645-0.02-0.961-0.058c1.788,1.145,3.913,1.808,6.191,1.808
	c7.434,0,11.5-6.154,11.5-11.49c0-0.173-0.01-0.355-0.019-0.52C1163.115,1409.913,1163.808,1409.202,1164.346,1408.395z"/>
<g>
	<g>
		<path id="SVGID_7_" fill="#333333" d="M1062.5,1402.5l40,40l40-40H1062.5z"/>
	</g>
	<g>
		<g>
			<g>
				<defs>
					<polygon id="SVGID_12_" points="1062.5,1402.5 1102.5,1442.5 1142.5,1402.5 					"/>
				</defs>
				<clipPath id="SVGID_13_">
					<use xlink:href="#SVGID_12_"  overflow="visible"/>
				</clipPath>
				<g clip-path="url(#SVGID_13_)">
					<path fill="#FFFFFF" d="M1115.396,1423.157h-2.92c0.213,0.825,0.338,1.688,0.338,2.579c0,5.698-4.616,10.314-10.313,10.314
						c-5.695,0-10.314-4.616-10.314-10.314c0-0.893,0.127-1.754,0.34-2.579h-2.92v14.185c0,0.713,0.578,1.289,1.291,1.289h23.209
						c0.713,0,1.291-0.576,1.291-1.289L1115.396,1423.157L1115.396,1423.157z M1115.396,1414.132c0-0.712-0.578-1.29-1.291-1.29
						h-3.869c-0.711,0-1.288,0.578-1.288,1.29v3.869c0,0.712,0.577,1.289,1.288,1.289h3.869c0.713,0,1.291-0.577,1.291-1.289
						V1414.132z M1102.5,1419.29c-3.562,0-6.447,2.886-6.447,6.446c0,3.562,2.887,6.446,6.447,6.446
						c3.562,0,6.447-2.887,6.447-6.446C1108.947,1422.176,1106.062,1419.29,1102.5,1419.29 M1115.396,1442.5h-25.791
						c-2.137,0-3.868-1.73-3.868-3.869v-25.789c0-2.136,1.731-3.866,3.868-3.866h25.791c2.136,0,3.867,1.73,3.867,3.866v25.789
						C1119.264,1440.77,1117.531,1442.5,1115.396,1442.5"/>
				</g>
			</g>
		</g>
	</g>
</g>
<g>
	<g>
		<path fill="#FFFFFF" d="M1162.886,1508.527c-0.044-0.009-0.085-0.026-0.133-0.026h-16.504c-0.045,0-0.086,0.018-0.133,0.026
			l8.385,6.986L1162.886,1508.527z M1163.457,1509.028l-5.945,4.955l5.952,5.953c0.018-0.06,0.035-0.118,0.035-0.182v-10.504
			C1163.504,1509.171,1163.482,1509.099,1163.457,1509.028z M1145.546,1509.026c-0.023,0.071-0.046,0.145-0.046,0.225v10.504
			c0,0.063,0.02,0.12,0.036,0.182l5.955-5.952L1145.546,1509.026z M1154.74,1516.291c-0.067,0.059-0.153,0.086-0.239,0.086
			c-0.084,0-0.171-0.027-0.238-0.086l-2.193-1.824l-6.003,6.002c0.06,0.017,0.119,0.037,0.183,0.037h16.504
			c0.066,0,0.124-0.021,0.186-0.037l-6.003-6.003L1154.74,1516.291z"/>
	</g>
</g>
<g>
	<g>
		<path fill="#FFFFFF" d="M1155.443,1480.987c-0.889-0.721-1.91-1.69-2.796-2.789c-0.623-0.768-1.172-1.571-0.604-2.141
			l-3.986-3.969c-0.581,0.721-1.869,4.166,3.648,9.805c5.815,5.94,9.564,4.671,10.211,4.003l-3.888-3.877
			C1157.486,1482.558,1156.787,1482.079,1155.443,1480.987z M1163.318,1483.643v-0.003c0,0-3.033-3.02-3.033-3.022
			c-0.241-0.238-0.625-0.233-0.863,0.003l-1.102,1.1l3.896,3.884c0,0,1.102-1.094,1.101-1.095h0.003
			C1163.572,1484.256,1163.548,1483.872,1163.318,1483.643z M1153.444,1474.664v-0.002c0.251-0.251,0.228-0.635,0-0.863v-0.005
			c0,0-3.122-3.104-3.122-3.106c-0.238-0.24-0.625-0.235-0.863,0.003l-1.1,1.097l3.984,3.971
			C1152.344,1475.759,1153.444,1474.666,1153.444,1474.664z"/>
	</g>
</g>
<g>
	<g>
		<path fill="#FFFFFF" d="M1162,1441c0-2.484-2.017-4.5-4.5-4.5s-4.5,2.016-4.5,4.5c0,2.178,1.546,3.993,3.6,4.408v7.342
			c-1.049,0.124-1.8,0.457-1.8,0.848c0,0.396,0.751,0.729,1.8,0.854v0.048h0.765c0.002,0,0.002,0,0.002,0c0.046,0,0.088,0,0.134,0
			c0.033,0,0.066,0,0.102,0h0.797v-0.052c1.049-0.123,1.801-0.456,1.801-0.852c0-0.395-0.752-0.728-1.801-0.851l0.002-7.341
			C1160.453,1444.993,1162,1443.178,1162,1441z M1156.148,1441c-0.744,0-1.35-0.604-1.35-1.35c0-0.746,0.604-1.353,1.35-1.353
			s1.352,0.603,1.352,1.353C1157.5,1440.396,1156.896,1441,1156.148,1441z"/>
	</g>
</g>
<g>
	<g>
		<path id="SVGID_9_" fill="#333333" d="M822.5,1402.5l40,40l40-40H822.5z"/>
	</g>
	<g>
		<g>
			<g>
				<defs>
					<polygon id="SVGID_14_" points="822.5,1402.5 862.5,1442.5 902.499,1402.5 					"/>
				</defs>
				<clipPath id="SVGID_15_">
					<use xlink:href="#SVGID_14_"  overflow="visible"/>
				</clipPath>
				<g clip-path="url(#SVGID_15_)">
					<path fill="#FFFFFF" d="M888.961,1425.29l0.039-0.194c-4.364-0.873-8.842-0.881-11.553-0.769
						c0.445-1.604,0.579-3.448,0.579-5.506c0-2.951-1.108-5.312-2.909-7.108c0.314-1.015,0.735-3.27-0.418-6.157
						c0,0-2.037-0.646-6.644,2.437c-1.805-0.451-3.725-0.673-5.647-0.673c-2.115,0-4.254,0.27-6.248,0.815
						c-4.752-3.243-6.852-2.579-6.852-2.579c-1.37,3.425-0.523,5.961-0.266,6.591c-1.61,1.737-2.594,3.955-2.594,6.675
						c0,2.053,0.234,3.894,0.805,5.494c-2.731-0.1-7.047-0.062-11.256,0.78l0.039,0.194c4.233-0.848,8.575-0.876,11.293-0.773
						c0.125,0.332,0.266,0.653,0.422,0.963c-2.687,0.086-7.271,0.43-11.666,1.668l0.055,0.191c4.429-1.249,9.055-1.583,11.714-1.664
						c1.604,2.991,4.769,4.922,10.396,5.529c-0.799,0.536-1.612,1.448-1.943,2.993c-1.088,0.521-4.534,1.791-6.602-1.766
						c0,0-1.158-2.116-3.373-2.281c0,0-2.148-0.032-0.148,1.339c0,0,1.438,0.679,2.43,3.225c0,0,1.295,4.343,7.539,2.949v4.485
						c0,0-0.132,1.586-1.585,2.115c0,0-0.859,0.595,0.066,0.925c0,0,4.031,0.331,4.031-2.974v-4.893c0,0-0.158-1.939,0.793-2.613
						v8.034c0,0-0.064,1.917-1.057,2.645c0,0-0.66,1.188,0.793,0.859c0,0,2.776-0.396,2.908-3.637l0.062-8.131h0.668l0.062,8.131
						c0.132,3.239,2.909,3.637,2.909,3.637c1.454,0.329,0.793-0.859,0.793-0.859c-0.992-0.728-1.058-2.645-1.058-2.645v-7.965
						c0.953,0.742,0.793,2.545,0.793,2.545v4.893c0,3.305,4.031,2.974,4.031,2.974c0.926-0.33,0.066-0.925,0.066-0.925
						c-1.455-0.529-1.586-2.115-1.586-2.115v-6.412c0-2.5-1.053-3.824-2.083-4.522c6.002-0.595,8.882-2.533,10.209-5.544
						c2.629,0.072,7.36,0.393,11.886,1.669l0.055-0.191c-4.5-1.269-9.199-1.597-11.855-1.675c0.126-0.304,0.234-0.621,0.333-0.946
						C880.081,1424.413,884.581,1424.414,888.961,1425.29L888.961,1425.29z"/>
					<path fill="#929497" d="M872.156,1418.682c1.293,1.171,2.049,2.585,2.049,4.109c0,7.115-5.304,7.308-11.846,7.308
						c-6.542,0-11.846-0.984-11.846-7.308c0-1.513,0.746-2.919,2.023-4.085c2.129-1.944,5.733-0.915,9.822-0.915
						C866.434,1417.791,870.023,1416.751,872.156,1418.682L872.156,1418.682z"/>
					<path fill="#C5C7C9" d="M858.42,1423.153c0,1.958-1.104,3.548-2.463,3.548c-1.361,0-2.465-1.589-2.465-3.548
						c0-1.96,1.104-3.547,2.465-3.547C857.316,1419.605,858.42,1421.194,858.42,1423.153L858.42,1423.153z"/>
					<path fill="#FFFFFF" d="M857.629,1423.198c0,1.306-0.735,2.364-1.643,2.364c-0.908,0-1.643-1.059-1.643-2.364
						c0-1.308,0.734-2.366,1.643-2.366C856.895,1420.832,857.629,1421.891,857.629,1423.198L857.629,1423.198z"/>
					<path fill="#C5C7C9" d="M871.645,1423.153c0,1.958-1.104,3.548-2.465,3.548c-1.361,0-2.466-1.589-2.466-3.548
						c0-1.96,1.104-3.547,2.466-3.547C870.54,1419.605,871.645,1421.194,871.645,1423.153L871.645,1423.153z"/>
					<path fill="#FFFFFF" d="M870.854,1423.198c0,1.306-0.735,2.364-1.644,2.364s-1.644-1.059-1.644-2.364
						c0-1.308,0.735-2.366,1.644-2.366S870.854,1421.891,870.854,1423.198L870.854,1423.198z"/>
					<path fill="#FFFFFF" d="M863.012,1426.304c0,0.341-0.276,0.617-0.617,0.617c-0.34,0-0.616-0.276-0.616-0.617
						c0-0.34,0.276-0.616,0.616-0.616C862.735,1425.688,863.012,1425.964,863.012,1426.304L863.012,1426.304z"/>
					<path fill="#FFFFFF" d="M860.958,1427.862c-0.035-0.104,0.019-0.217,0.123-0.253c0.103-0.036,0.215,0.019,0.252,0.121
						c0.158,0.448,0.582,0.749,1.057,0.749c0.474,0,0.898-0.301,1.058-0.749c0.036-0.104,0.149-0.157,0.253-0.121
						s0.156,0.149,0.12,0.253c-0.214,0.604-0.79,1.013-1.431,1.013S861.172,1428.468,860.958,1427.862L860.958,1427.862z"/>
				</g>
			</g>
		</g>
	</g>
</g>
</svg>
